<?xml version="1.0" encoding="UTF-8"?>
<svg id="Layer_4" data-name="Layer 4" xmlns="http://www.w3.org/2000/svg" xmlns:xlink="http://www.w3.org/1999/xlink" viewBox="0 0 97.24 93.52">
  <defs>
    <style>
      .cls-1 {
        fill: url(#linear-gradient-2);
      }

      .cls-2 {
        fill: url(#linear-gradient-4);
      }

      .cls-3 {
        fill: url(#linear-gradient-3);
      }

      .cls-4 {
        fill: url(#linear-gradient-5);
      }

      .cls-5 {
        fill: #8688f3;
        opacity: .28;
      }

      .cls-6 {
        fill: url(#linear-gradient);
      }
    </style>
    <linearGradient id="linear-gradient" x1="48.82" y1="59.85" x2="48.76" y2="53.58" gradientUnits="userSpaceOnUse">
      <stop offset="0" stop-color="#454797"/>
      <stop offset="1" stop-color="#5e60ce"/>
    </linearGradient>
    <linearGradient id="linear-gradient-2" x1="49.17" y1="34.31" x2="49.52" y2="34.31" gradientUnits="userSpaceOnUse">
      <stop offset="0" stop-color="#80ed99"/>
      <stop offset=".54" stop-color="#ff6b6b"/>
      <stop offset="1" stop-color="#8688f3"/>
    </linearGradient>
    <linearGradient id="linear-gradient-3" x1="49.69" y1="34.67" x2="49.73" y2="34.67" xlink:href="#linear-gradient-2"/>
    <linearGradient id="linear-gradient-4" x1="48.61" y1="52.06" x2="48.61" y2="32.39" gradientUnits="userSpaceOnUse">
      <stop offset="0" stop-color="#8688f3"/>
      <stop offset=".2" stop-color="#8887f0"/>
      <stop offset=".31" stop-color="#8f85e8"/>
      <stop offset=".41" stop-color="#9b82da"/>
      <stop offset=".49" stop-color="#ad7ec6"/>
      <stop offset=".56" stop-color="#c478ac"/>
      <stop offset=".63" stop-color="#e0728d"/>
      <stop offset=".69" stop-color="#ff6b6b"/>
      <stop offset="1" stop-color="#80ed99"/>
    </linearGradient>
    <linearGradient id="linear-gradient-5" x1="49.69" y1="34.67" x2="49.73" y2="34.67" xlink:href="#linear-gradient-2"/>
  </defs>
  <rect class="cls-5" x=".26" y=".19" width="97.02" height="93.52" rx="16.91" ry="16.91"/>
  <g>
    <path class="cls-6" d="M62.52,50.43v6.64c0,1.61-1.3,2.91-2.91,2.91h-21.69c-1.61,0-2.91-1.3-2.91-2.91v-6.64c0-.6,0-1.09,1.09-1.09h0c1.06,0,1.09.49,1.09,1.09v6.77c0,.6.49,1.09,1.09,1.09h20.96c.6,0,1.09-.49,1.09-1.09v-6.77c0-.6-.03-1.05,1.09-1.09h0c.95.03,1.09.49,1.09,1.09Z"/>
    <path class="cls-1" d="M49.19,34.14l.33.34-.35-.34h.02Z"/>
    <path class="cls-3" d="M49.73,34.68v.02s-.02-.03-.04-.05l.04.03Z"/>
    <path class="cls-1" d="M49.52,34.48l-.35-.34h.02l.33.34Z"/>
    <path class="cls-2" d="M56.9,42.43l-.54.56c-.22.23-.58.23-.81.01l-5.82-5.64v14.09c0,.32-.26.58-.57.58h-.78c-.32,0-.57-.26-.57-.58v-14.16l-6.12,6.01c-.23.22-.59.21-.81,0l-.55-.56c-.22-.22-.22-.59.01-.81l7.48-7.33.44-.44h.01l.06-.06c.23-.23.59-.22.81,0l.05.05h-.02l.35.34.17.17s.03.03.04.05v-.02l7.16,6.94c.23.22.23.58.01.81Z"/>
    <path class="cls-4" d="M49.73,34.68v.02s-.02-.03-.04-.05l.04.03Z"/>
  </g>
</svg>